NotoSerifBengali-ExtraCondensedBlack.ufo
<glyph name="plus" format="2">
  <advance width="425"/>
  <unicode hex="002B"/>
  <outline>
    <contour>
      <point x="174" y="143" type="line"/>
      <point x="251" y="143" type="line"/>
      <point x="251" y="321" type="line"/>
      <point x="391" y="321" type="line"/>
      <point x="391" y="394" type="line"/>
      <point x="251" y="394" type="line"/>
      <point x="251" y="572" type="line"/>
      <point x="174" y="572" type="line"/>
      <point x="174" y="394" type="line"/>
      <point x="34" y="394" type="line"/>
      <point x="34" y="321" type="line"/>
      <point x="174" y="321" type="line"/>
    </contour>
  </outline>
</glyph>
<glyph name="nine" format="2">
  <advance width="466"/>
  <unicode hex="0039"/>
  <outline>
    <contour>
      <point x="189" y="-10" type="curve"/>
      <point x="367" y="-10"/>
      <point x="439" y="159"/>
      <point x="439" y="388" type="curve"/>
      <point x="439" y="633"/>
      <point x="346" y="724"/>
      <point x="219" y="724" type="curve" smooth="yes"/>
      <point x="94" y="724"/>
      <point x="19" y="628"/>
      <point x="19" y="485" type="curve" smooth="yes"/>
      <point x="19" y="351"/>
      <point x="87" y="277"/>
      <point x="181" y="277" type="curve" smooth="yes"/>
      <point x="237" y="277"/>
      <point x="266" y="299"/>
      <point x="293" y="335" type="curve"/>
      <point x="287" y="153"/>
      <point x="255" y="56"/>
      <point x="196" y="56" type="curve" smooth="yes"/>
      <point x="137" y="56"/>
      <point x="117" y="110"/>
      <point x="100" y="175" type="curve"/>
      <point x="56" y="167"/>
      <point x="41" y="134"/>
      <point x="41" y="104" type="curve" smooth="yes"/>
      <point x="41" y="43"/>
      <point x="83" y="-10"/>
    </contour>
    <contour>
      <point x="227" y="350" type="curve"/>
      <point x="187" y="351"/>
      <point x="166" y="403"/>
      <point x="166" y="488" type="curve" smooth="yes"/>
      <point x="166" y="599"/>
      <point x="189" y="655"/>
      <point x="228" y="655" type="curve" smooth="yes"/>
      <point x="269" y="655"/>
      <point x="292" y="590"/>
      <point x="293" y="400" type="curve"/>
      <point x="274" y="369"/>
      <point x="253" y="351"/>
    </contour>
  </outline>
</glyph>
<glyph name="backslash" format="2">
  <advance width="240"/>
  <unicode hex="005C"/>
  <outline>
    <contour>
      <point x="172" y="-121" type="line"/>
      <point x="240" y="-121" type="line"/>
      <point x="68" y="760" type="line"/>
      <point x="0" y="760" type="line"/>
    </contour>
  </outline>
</glyph>
<glyph name="underscore" format="2">
  <advance width="382"/>
  <unicode hex="005F"/>
  <outline>
    <contour>
      <point x="-5" y="-142" type="line"/>
      <point x="386" y="-142" type="line"/>
      <point x="386" y="-83" type="line"/>
      <point x="-5" y="-83" type="line"/>
    </contour>
  </outline>
</glyph>
<glyph name="udatta-deva" format="2">
  <unicode hex="0951"/>
  <anchor x="-299" y="-280" name="_vedic"/>
  <outline>
    <contour>
      <point x="-354" y="706" type="line"/>
      <point x="-244" y="706" type="line"/>
      <point x="-244" y="922" type="line"/>
      <point x="-354" y="922" type="line"/>
    </contour>
  </outline>
</glyph>
<glyph name="ai-beng" format="2">
  <advance width="680"/>
  <unicode hex="0990"/>
  <anchor x="501" y="606" name="top"/>
  <anchor x="453" y="596" name="topright"/>
  <anchor x="340" y="0" name="vedic"/>
  <anchor x="549" y="0" name="bottom"/>
  <anchor x="549" y="-10" name="bottom.rvocalic"/>
  <anchor x="531" y="10" name="bottom.virama"/>
  <outline>
    <contour>
      <point x="518" y="290" type="line"/>
      <point x="588" y="361"/>
      <point x="640" y="442"/>
      <point x="640" y="564" type="curve" smooth="yes"/>
      <point x="640" y="735"/>
      <point x="507" y="773"/>
      <point x="393" y="798" type="curve" smooth="yes"/>
      <point x="302" y="818"/>
      <point x="213" y="838"/>
      <point x="213" y="925" type="curve" smooth="yes"/>
      <point x="213" y="955"/>
      <point x="220" y="988"/>
      <point x="232" y="1015" type="curve"/>
      <point x="172" y="1034" type="line"/>
      <point x="152" y="985"/>
      <point x="139" y="941"/>
      <point x="139" y="887" type="curve" smooth="yes"/>
      <point x="139" y="746"/>
      <point x="242" y="702"/>
      <point x="373" y="675" type="curve" smooth="yes"/>
      <point x="484" y="652"/>
      <point x="571" y="644"/>
      <point x="571" y="551" type="curve" smooth="yes"/>
      <point x="571" y="490"/>
      <point x="552" y="445"/>
      <point x="495" y="397" type="curve"/>
    </contour>
    <component base="e-beng"/>
  </outline>
</glyph>
<glyph name="au-beng" format="2">
  <advance width="710"/>
  <unicode hex="0994"/>
  <anchor x="612" y="-16" name="bottom"/>
  <anchor x="679" y="-1" name="bottom.rakaar"/>
  <anchor x="599" y="12" name="bottom.rvocalic"/>
  <anchor x="534" y="-1" name="bottom.virama"/>
  <anchor x="643" y="606" name="top"/>
  <anchor x="580" y="596" name="topright"/>
  <anchor x="355" y="0" name="vedic"/>
  <outline>
    <contour>
      <point x="548" y="290" type="line"/>
      <point x="618" y="361"/>
      <point x="670" y="442"/>
      <point x="670" y="564" type="curve" smooth="yes"/>
      <point x="670" y="735"/>
      <point x="537" y="773"/>
      <point x="423" y="798" type="curve" smooth="yes"/>
      <point x="332" y="818"/>
      <point x="243" y="838"/>
      <point x="243" y="925" type="curve" smooth="yes"/>
      <point x="243" y="955"/>
      <point x="250" y="988"/>
      <point x="262" y="1015" type="curve"/>
      <point x="202" y="1034" type="line"/>
      <point x="182" y="985"/>
      <point x="169" y="941"/>
      <point x="169" y="887" type="curve" smooth="yes"/>
      <point x="169" y="746"/>
      <point x="272" y="702"/>
      <point x="403" y="675" type="curve" smooth="yes"/>
      <point x="514" y="652"/>
      <point x="601" y="644"/>
      <point x="601" y="551" type="curve" smooth="yes"/>
      <point x="601" y="490"/>
      <point x="582" y="445"/>
      <point x="525" y="397" type="curve"/>
    </contour>
    <component base="o-beng"/>
  </outline>
</glyph>
<glyph name="tta-beng" format="2">
  <advance width="487"/>
  <unicode hex="099F"/>
  <anchor x="326" y="-10" name="bottom"/>
  <anchor x="410" y="0" name="bottom.rakaar"/>
  <anchor x="345" y="-13" name="bottom.rvocalic"/>
  <anchor x="256" y="20" name="bottom.virama"/>
  <anchor x="235" y="662" name="top"/>
  <anchor x="175" y="632" name="topright"/>
  <anchor x="243" y="0" name="vedic"/>
  <anchor x="211" y="-121" name="nukta"/>
  <outline>
    <contour>
      <point x="363" y="588" type="curve"/>
      <point x="428" y="588" type="line"/>
      <point x="422" y="755"/>
      <point x="365" y="823"/>
      <point x="269" y="823" type="curve" smooth="yes"/>
      <point x="217" y="823"/>
      <point x="181" y="812"/>
      <point x="130" y="812" type="curve" smooth="yes"/>
      <point x="63" y="812"/>
      <point x="37" y="841"/>
      <point x="37" y="895" type="curve" smooth="yes"/>
      <point x="37" y="907"/>
      <point x="38" y="922"/>
      <point x="40" y="936" type="curve"/>
      <point x="-14" y="943" type="line"/>
      <point x="-20" y="917"/>
      <point x="-23" y="886"/>
      <point x="-23" y="858" type="curve" smooth="yes"/>
      <point x="-23" y="756"/>
      <point x="30" y="684"/>
      <point x="140" y="684" type="curve" smooth="yes"/>
      <point x="200" y="684"/>
      <point x="239" y="695"/>
      <point x="277" y="695" type="curve" smooth="yes"/>
      <point x="324" y="695"/>
      <point x="357" y="677"/>
    </contour>
    <component base="ddha-beng"/>
  </outline>
</glyph>
<glyph name="nukta-beng" format="2">
  <unicode hex="09BC"/>
  <anchor x="0" y="-137" name="_nukta"/>
  <outline>
    <contour>
      <point x="0" y="-215" type="curve" smooth="yes"/>
      <point x="44" y="-215"/>
      <point x="71" y="-185"/>
      <point x="71" y="-137" type="curve" smooth="yes"/>
      <point x="71" y="-88"/>
      <point x="44" y="-58"/>
      <point x="0" y="-58" type="curve" smooth="yes"/>
      <point x="-45" y="-58"/>
      <point x="-73" y="-88"/>
      <point x="-73" y="-137" type="curve" smooth="yes"/>
      <point x="-73" y="-185"/>
      <point x="-45" y="-215"/>
    </contour>
  </outline>
</glyph>
<glyph name="uuMatra-beng" format="2">
  <unicode hex="09C2"/>
  <anchor x="0" y="0" name="_bottom"/>
  <outline>
    <contour>
      <point x="149" y="-317" type="curve"/>
      <point x="185" y="-275" type="line"/>
      <point x="139" y="-217"/>
      <point x="59" y="-170"/>
      <point x="11" y="-148" type="curve"/>
      <point x="-35" y="-190"/>
      <point x="-83" y="-207"/>
      <point x="-122" y="-207" type="curve" smooth="yes"/>
      <point x="-158" y="-207"/>
      <point x="-174" y="-190"/>
      <point x="-174" y="-165" type="curve" smooth="yes"/>
      <point x="-174" y="-141"/>
      <point x="-159" y="-124"/>
      <point x="-122" y="-124" type="curve" smooth="yes"/>
      <point x="-94" y="-124"/>
      <point x="-69" y="-130"/>
      <point x="-42" y="-140" type="curve"/>
      <point x="11" y="-114" type="line"/>
      <point x="10" y="-49"/>
      <point x="-3" y="-1"/>
      <point x="-16" y="41" type="curve"/>
      <point x="-97" y="16" type="line"/>
      <point x="-90" y="-10"/>
      <point x="-83" y="-48"/>
      <point x="-83" y="-78" type="curve"/>
      <point x="-48" y="-49" type="line"/>
      <point x="-74" y="-38"/>
      <point x="-101" y="-30"/>
      <point x="-139" y="-30" type="curve" smooth="yes"/>
      <point x="-214" y="-30"/>
      <point x="-264" y="-78"/>
      <point x="-264" y="-155" type="curve" smooth="yes"/>
      <point x="-264" y="-234"/>
      <point x="-220" y="-299"/>
      <point x="-116" y="-301" type="curve" smooth="yes"/>
      <point x="-48" y="-302"/>
      <point x="9" y="-280"/>
      <point x="57" y="-222" type="curve"/>
      <point x="-5" y="-222" type="line"/>
      <point x="46" y="-233"/>
      <point x="110" y="-283"/>
    </contour>
  </outline>
</glyph>
<glyph name="halant-beng" format="2">
  <unicode hex="09CD"/>
  <anchor x="-75" y="0" name="_bottom.virama"/>
  <outline>
    <contour>
      <point x="81" y="-300" type="curve"/>
      <point x="125" y="-252" type="line"/>
      <point x="38" y="-136"/>
      <point x="-58" y="-87"/>
      <point x="-153" y="-59" type="curve"/>
      <point x="-192" y="-176" type="line"/>
      <point x="-94" y="-197"/>
      <point x="-11" y="-223"/>
    </contour>
  </outline>
</glyph>
<glyph name="rupeemark-beng" format="2">
  <advance width="446"/>
  <unicode hex="09F2"/>
  <outline>
    <contour>
      <point x="363" y="1" type="curve"/>
      <point x="435" y="23" type="line"/>
      <point x="343" y="353"/>
      <point x="166" y="491"/>
      <point x="79" y="558" type="curve"/>
      <point x="41" y="384" type="line"/>
      <point x="109" y="342"/>
      <point x="263" y="268"/>
    </contour>
  </outline>
</glyph>
<glyph name="ganda-beng" format="2">
  <advance width="323"/>
  <unicode hex="09FB"/>
  <outline>
    <contour>
      <point x="265" y="-101" type="curve"/>
      <point x="329" y="-69" type="line"/>
      <point x="252" y="41"/>
      <point x="181" y="191"/>
      <point x="181" y="302" type="curve" smooth="yes"/>
      <point x="181" y="356"/>
      <point x="196" y="384"/>
      <point x="241" y="413" type="curve"/>
      <point x="165" y="523" type="line"/>
      <point x="89" y="485"/>
      <point x="38" y="431"/>
      <point x="38" y="350" type="curve" smooth="yes"/>
      <point x="38" y="213"/>
      <point x="149" y="60"/>
    </contour>
  </outline>
</glyph>
<glyph name="uni09FC" format="2">
  <advance width="446"/>
  <unicode hex="09FC"/>
  <anchor x="-227" y="0" name="vedic"/>
  <outline>
    <contour>
      <point x="225" y="249" type="curve" smooth="yes"/>
      <point x="322" y="249"/>
      <point x="381" y="311"/>
      <point x="395" y="461" type="curve"/>
      <point x="348" y="478" type="line"/>
      <point x="330" y="397"/>
      <point x="281" y="360"/>
      <point x="224" y="360" type="curve" smooth="yes"/>
      <point x="166" y="360"/>
      <point x="114" y="396"/>
      <point x="99" y="478" type="curve"/>
      <point x="51" y="461" type="line"/>
      <point x="61" y="317"/>
      <point x="126" y="249"/>
    </contour>
    <contour>
      <point x="222" y="395" type="curve" smooth="yes"/>
      <point x="263" y="395"/>
      <point x="290" y="422"/>
      <point x="290" y="465" type="curve" smooth="yes"/>
      <point x="290" y="508"/>
      <point x="263" y="535"/>
      <point x="222" y="535" type="curve" smooth="yes"/>
      <point x="179" y="535"/>
      <point x="152" y="508"/>
      <point x="152" y="465" type="curve" smooth="yes"/>
      <point x="152" y="422"/>
      <point x="179" y="395"/>
    </contour>
    <contour>
      <point x="386" y="-48" type="curve"/>
      <point x="430" y="0" type="line"/>
      <point x="343" y="116"/>
      <point x="247" y="165"/>
      <point x="152" y="193" type="curve"/>
      <point x="113" y="76" type="line"/>
      <point x="211" y="55"/>
      <point x="294" y="29"/>
    </contour>
  </outline>
</glyph>
<glyph name="uni1CD0" format="2">
  <unicode hex="1CD0"/>
  <note>
uni1CD0
</note>
  <anchor x="-299" y="-280" name="_vedic"/>
  <outline>
    <contour>
      <point x="-356" y="690" type="line"/>
      <point x="-255" y="831" type="line"/>
      <point x="-299" y="831" type="line"/>
      <point x="-191" y="690" type="line"/>
      <point x="-130" y="732" type="line"/>
      <point x="-304" y="957" type="line"/>
      <point x="-467" y="761" type="line"/>
    </contour>
  </outline>
</glyph>
<glyph name="uni1CD5" format="2">
  <unicode hex="1CD5"/>
  <note>
uni1CD5
</note>
  <anchor x="-299" y="440" name="_vedic"/>
  <outline>
    <contour>
      <point x="-341" y="-305" type="curve" smooth="yes"/>
      <point x="-283" y="-305"/>
      <point x="-242" y="-263"/>
      <point x="-242" y="-188" type="curve" smooth="yes"/>
      <point x="-242" y="-122" type="line"/>
      <point x="-341" y="-82" type="line"/>
      <point x="-341" y="-155" type="line" smooth="yes"/>
      <point x="-341" y="-197"/>
      <point x="-351" y="-225"/>
      <point x="-378" y="-225" type="curve" smooth="yes"/>
      <point x="-393" y="-225"/>
      <point x="-403" y="-214"/>
      <point x="-403" y="-196" type="curve" smooth="yes"/>
      <point x="-403" y="-171"/>
      <point x="-391" y="-143"/>
      <point x="-373" y="-109" type="curve"/>
      <point x="-470" y="-54" type="line"/>
      <point x="-490" y="-83"/>
      <point x="-502" y="-118"/>
      <point x="-502" y="-150" type="curve" smooth="yes"/>
      <point x="-502" y="-221"/>
      <point x="-427" y="-305"/>
    </contour>
    <contour>
      <point x="-187" y="-304" type="curve" smooth="yes"/>
      <point x="-133" y="-304"/>
      <point x="-95" y="-263"/>
      <point x="-95" y="-199" type="curve" smooth="yes"/>
      <point x="-95" y="-151"/>
      <point x="-111" y="-106"/>
      <point x="-156" y="-57" type="curve"/>
      <point x="-207" y="-93" type="line"/>
      <point x="-192" y="-117"/>
      <point x="-182" y="-142"/>
      <point x="-182" y="-171" type="curve" smooth="yes"/>
      <point x="-182" y="-203"/>
      <point x="-198" y="-222"/>
      <point x="-223" y="-222" type="curve" smooth="yes"/>
      <point x="-249" y="-222"/>
      <point x="-269" y="-202"/>
      <point x="-287" y="-167" type="curve"/>
      <point x="-322" y="-186" type="line"/>
      <point x="-302" y="-257"/>
      <point x="-251" y="-304"/>
    </contour>
  </outline>
</glyph>
<glyph name="uni1CD6" format="2">
  <unicode hex="1CD6"/>
  <note>
uni1CD6
</note>
  <anchor x="-299" y="440" name="_vedic"/>
  <outline>
    <contour>
      <point x="-416" y="-279" type="line"/>
      <point x="-103" y="-279" type="line"/>
      <point x="-159" y="-193" type="line"/>
      <point x="-368" y="-193" type="line"/>
      <point x="-368" y="-110" type="line"/>
      <point x="-478" y="-57" type="line"/>
      <point x="-478" y="-196" type="line"/>
    </contour>
  </outline>
</glyph>
<glyph name="uni1CD8" format="2">
  <unicode hex="1CD8"/>
  <note>
uni1CD8
</note>
  <anchor x="-299" y="440" name="_vedic"/>
  <outline>
    <contour>
      <point x="-288" y="-270" type="curve" smooth="yes"/>
      <point x="-182" y="-270"/>
      <point x="-134" y="-202"/>
      <point x="-120" y="-81" type="curve"/>
      <point x="-232" y="-57" type="line"/>
      <point x="-240" y="-147"/>
      <point x="-269" y="-180"/>
      <point x="-319" y="-180" type="curve" smooth="yes"/>
      <point x="-370" y="-180"/>
      <point x="-403" y="-135"/>
      <point x="-411" y="-56" type="curve"/>
      <point x="-472" y="-71" type="line"/>
      <point x="-459" y="-183"/>
      <point x="-411" y="-270"/>
    </contour>
  </outline>
</glyph>
<glyph name="uni1CEA" format="2">
  <advance width="734"/>
  <unicode hex="1CEA"/>
  <note>
uni1CEA
</note>
  <anchor x="367" y="0" name="vedic"/>
  <outline>
    <contour>
      <point x="416" y="-9" type="curve" smooth="yes"/>
      <point x="556" y="-9"/>
      <point x="643" y="57"/>
      <point x="643" y="149" type="curve" smooth="yes"/>
      <point x="643" y="277"/>
      <point x="518" y="366"/>
      <point x="518" y="458" type="curve" smooth="yes"/>
      <point x="518" y="512"/>
      <point x="550" y="545"/>
      <point x="581" y="545" type="curve" smooth="yes"/>
      <point x="595" y="545"/>
      <point x="603" y="538"/>
      <point x="603" y="526" type="curve" smooth="yes"/>
      <point x="603" y="503"/>
      <point x="574" y="482"/>
      <point x="531" y="464" type="curve"/>
      <point x="588" y="353" type="line"/>
      <point x="649" y="380"/>
      <point x="693" y="418"/>
      <point x="693" y="478" type="curve" smooth="yes"/>
      <point x="693" y="555"/>
      <point x="632" y="634"/>
      <point x="535" y="634" type="curve" smooth="yes"/>
      <point x="458" y="634"/>
      <point x="403" y="583"/>
      <point x="403" y="506" type="curve" smooth="yes"/>
      <point x="403" y="400"/>
      <point x="508" y="317"/>
      <point x="508" y="211" type="curve" smooth="yes"/>
      <point x="508" y="141"/>
      <point x="440" y="97"/>
      <point x="357" y="97" type="curve" smooth="yes"/>
      <point x="282" y="97"/>
      <point x="246" y="124"/>
      <point x="246" y="162" type="curve" smooth="yes"/>
      <point x="246" y="239"/>
      <point x="377" y="309"/>
      <point x="377" y="415" type="curve" smooth="yes"/>
      <point x="377" y="519"/>
      <point x="303" y="634"/>
      <point x="195" y="634" type="curve" smooth="yes"/>
      <point x="129" y="634"/>
      <point x="84" y="588"/>
      <point x="84" y="526" type="curve" smooth="yes"/>
      <point x="84" y="467"/>
      <point x="123" y="414"/>
      <point x="186" y="371" type="curve"/>
      <point x="230" y="418" type="line"/>
      <point x="216" y="436"/>
      <point x="208" y="456"/>
      <point x="208" y="476" type="curve" smooth="yes"/>
      <point x="208" y="504"/>
      <point x="226" y="527"/>
      <point x="248" y="527" type="curve" smooth="yes"/>
      <point x="265" y="527"/>
      <point x="275" y="513"/>
      <point x="275" y="492" type="curve" smooth="yes"/>
      <point x="275" y="389"/>
      <point x="124" y="326"/>
      <point x="124" y="216" type="curve" smooth="yes"/>
      <point x="124" y="109"/>
      <point x="239" y="-9"/>
    </contour>
  </outline>
</glyph>
<glyph name="uniA8F1" format="2">
  <unicode hex="A8F1"/>
  <note>
uniA8F1
</note>
  <outline>
    <contour>
      <point x="-74" y="972" type="curve" smooth="yes"/>
      <point x="-22" y="972"/>
      <point x="5" y="1001"/>
      <point x="5" y="1043" type="curve" smooth="yes"/>
      <point x="5" y="1134"/>
      <point x="-95" y="1164"/>
      <point x="-95" y="1199" type="curve" smooth="yes"/>
      <point x="-95" y="1209"/>
      <point x="-89" y="1216"/>
      <point x="-72" y="1216" type="curve" smooth="yes"/>
      <point x="-6" y="1216" type="line"/>
      <point x="-6" y="1223" type="line"/>
      <point x="-28" y="1273" type="line"/>
      <point x="-113" y="1273" type="line" smooth="yes"/>
      <point x="-153" y="1273"/>
      <point x="-178" y="1251"/>
      <point x="-178" y="1220" type="curve" smooth="yes"/>
      <point x="-178" y="1154"/>
      <point x="-73" y="1113"/>
      <point x="-73" y="1067" type="curve" smooth="yes"/>
      <point x="-73" y="1049"/>
      <point x="-80" y="1037"/>
      <point x="-103" y="1037" type="curve" smooth="yes"/>
      <point x="-127" y="1037"/>
      <point x="-153" y="1070"/>
      <point x="-184" y="1121" type="curve"/>
      <point x="-226" y="1099" type="line"/>
      <point x="-191" y="1026"/>
      <point x="-145" y="972"/>
    </contour>
  </outline>
</glyph>
<glyph name="assastroke" format="2">
  <advance width="353"/>
  <anchor x="156" y="23" name="_nukta"/>
  <outline>
    <contour>
      <point x="262" y="-63" type="curve"/>
      <point x="294" y="-25" type="line"/>
      <point x="244" y="46"/>
      <point x="166" y="116"/>
      <point x="56" y="134" type="curve"/>
      <point x="63" y="32" type="line"/>
      <point x="145" y="19"/>
      <point x="210" y="-12"/>
    </contour>
  </outline>
</glyph>
<glyph name="b-beng" format="2">
  <advance width="343"/>
  <outline>
    <contour>
      <point x="299" y="96" type="line"/>
      <point x="309" y="98" type="line"/>
      <point x="309" y="536" type="line"/>
      <point x="378" y="536" type="line"/>
      <point x="331" y="622" type="line"/>
      <point x="-35" y="622" type="line"/>
      <point x="10" y="536" type="line"/>
      <point x="212" y="536" type="line"/>
      <point x="212" y="463" type="line"/>
      <point x="222" y="523" type="line"/>
      <point x="138" y="503"/>
      <point x="41" y="452"/>
      <point x="-16" y="401" type="curve"/>
      <point x="36" y="257" type="line"/>
      <point x="106" y="237"/>
      <point x="193" y="208"/>
      <point x="229" y="134" type="curve"/>
    </contour>
    <contour>
      <point x="212" y="189" type="line"/>
      <point x="227" y="203" type="line"/>
      <point x="185" y="321"/>
      <point x="114" y="333"/>
      <point x="64" y="353" type="curve"/>
      <point x="85" y="283" type="line"/>
      <point x="104" y="317"/>
      <point x="180" y="363"/>
      <point x="228" y="378" type="curve"/>
      <point x="212" y="421" type="line"/>
    </contour>
  </outline>
</glyph>
<glyph name="ddNukta_ba-beng" format="2">
  <advance width="469"/>
  <anchor x="372" y="-217" name="bottom"/>
  <anchor x="377" y="-164" name="bottom.rakaar"/>
  <anchor x="377" y="-258" name="bottom.rvocalic"/>
  <anchor x="361" y="-244" name="bottom.virama"/>
  <anchor x="241" y="592" name="top"/>
  <anchor x="241" y="572" name="topright"/>
  <outline>
    <contour>
      <point x="262" y="105" type="curve" smooth="yes"/>
      <point x="376" y="105"/>
      <point x="433" y="188"/>
      <point x="433" y="310" type="curve" smooth="yes"/>
      <point x="433" y="403"/>
      <point x="400" y="468"/>
      <point x="359" y="512" type="curve"/>
      <point x="318" y="439"/>
      <point x="290" y="419"/>
      <point x="272" y="419" type="curve" smooth="yes"/>
      <point x="266" y="419"/>
      <point x="253" y="422"/>
      <point x="253" y="442" type="curve" smooth="yes"/>
      <point x="253" y="536" type="line"/>
      <point x="504" y="536" type="line"/>
      <point x="458" y="622" type="line"/>
      <point x="-35" y="622" type="line"/>
      <point x="10" y="536" type="line"/>
      <point x="157" y="536" type="line"/>
      <point x="157" y="431" type="line" smooth="yes"/>
      <point x="157" y="385"/>
      <point x="166" y="353"/>
      <point x="189" y="327" type="curve" smooth="yes"/>
      <point x="213" y="299"/>
      <point x="237" y="286"/>
      <point x="272" y="286" type="curve" smooth="yes"/>
      <point x="321" y="286"/>
      <point x="369" y="324"/>
      <point x="383" y="385" type="curve"/>
      <point x="350" y="377" type="line"/>
      <point x="361" y="361"/>
      <point x="368" y="341"/>
      <point x="368" y="323" type="curve" smooth="yes"/>
      <point x="368" y="273"/>
      <point x="328" y="240"/>
      <point x="265" y="240" type="curve" smooth="yes"/>
      <point x="152" y="240"/>
      <point x="107" y="342"/>
      <point x="86" y="502" type="curve"/>
      <point x="28" y="491" type="line"/>
      <point x="51" y="241"/>
      <point x="110" y="105"/>
    </contour>
    <contour>
      <point x="86" y="3" type="curve" smooth="yes"/>
      <point x="121" y="3"/>
      <point x="153" y="32"/>
      <point x="153" y="79" type="curve" smooth="yes"/>
      <point x="153" y="125"/>
      <point x="122" y="156"/>
      <point x="86" y="156" type="curve" smooth="yes"/>
      <point x="49" y="156"/>
      <point x="18" y="125"/>
      <point x="18" y="79" type="curve" smooth="yes"/>
      <point x="18" y="34"/>
      <point x="50" y="3"/>
    </contour>
    <contour>
      <point x="366" y="-296" type="line"/>
      <point x="377" y="-293" type="line"/>
      <point x="377" y="213" type="line"/>
      <point x="285" y="208" type="line"/>
      <point x="285" y="-205" type="line"/>
      <point x="300" y="-196" type="line"/>
      <point x="277" y="-128"/>
      <point x="210" y="-86"/>
      <point x="149" y="-74" type="curve"/>
      <point x="168" y="-124" type="line"/>
      <point x="196" y="-92"/>
      <point x="249" y="-68"/>
      <point x="296" y="-50" type="curve"/>
      <point x="291" y="78" type="line"/>
      <point x="219" y="49"/>
      <point x="147" y="18"/>
      <point x="73" y="-34" type="curve"/>
      <point x="138" y="-168" type="line"/>
      <point x="194" y="-172"/>
      <point x="252" y="-199"/>
      <point x="288" y="-253" type="curve"/>
    </contour>
  </outline>
</glyph>
<glyph name="ddhNukta_ba-beng" format="2">
  <advance width="387"/>
  <anchor x="329" y="-217" name="bottom"/>
  <anchor x="334" y="-164" name="bottom.rakaar"/>
  <anchor x="334" y="-258" name="bottom.rvocalic"/>
  <anchor x="318" y="-244" name="bottom.virama"/>
  <anchor x="134" y="592" name="top"/>
  <anchor x="134" y="572" name="topright"/>
  <outline>
    <contour>
      <point x="185" y="142" type="curve" smooth="yes"/>
      <point x="303" y="142"/>
      <point x="384" y="247"/>
      <point x="384" y="364" type="curve" smooth="yes"/>
      <point x="384" y="450"/>
      <point x="336" y="491"/>
      <point x="286" y="491" type="curve" smooth="yes"/>
      <point x="232" y="491"/>
      <point x="193" y="450"/>
      <point x="193" y="398" type="curve" smooth="yes"/>
      <point x="193" y="347"/>
      <point x="221" y="310"/>
      <point x="268" y="310" type="curve" smooth="yes"/>
      <point x="277" y="310"/>
      <point x="300" y="320"/>
      <point x="317" y="342" type="curve"/>
      <point x="245" y="375" type="line"/>
      <point x="243" y="296"/>
      <point x="205" y="253"/>
      <point x="174" y="253" type="curve" smooth="yes"/>
      <point x="156" y="253"/>
      <point x="151" y="265"/>
      <point x="151" y="285" type="curve" smooth="yes"/>
      <point x="151" y="536" type="line"/>
      <point x="422" y="536" type="line"/>
      <point x="381" y="622" type="line"/>
      <point x="-35" y="622" type="line"/>
      <point x="8" y="536" type="line"/>
      <point x="48" y="536" type="line"/>
      <point x="48" y="280" type="line" smooth="yes"/>
      <point x="48" y="204"/>
      <point x="105" y="142"/>
    </contour>
    <contour>
      <point x="86" y="21" type="curve" smooth="yes"/>
      <point x="117" y="21"/>
      <point x="147" y="48"/>
      <point x="147" y="90" type="curve" smooth="yes"/>
      <point x="147" y="132"/>
      <point x="118" y="160"/>
      <point x="86" y="160" type="curve" smooth="yes"/>
      <point x="53" y="160"/>
      <point x="25" y="132"/>
      <point x="25" y="90" type="curve" smooth="yes"/>
      <point x="25" y="49"/>
      <point x="54" y="21"/>
    </contour>
    <contour>
      <point x="323" y="-296" type="line"/>
      <point x="334" y="-293" type="line"/>
      <point x="334" y="293" type="line"/>
      <point x="242" y="208" type="line"/>
      <point x="242" y="-205" type="line"/>
      <point x="257" y="-196" type="line"/>
      <point x="234" y="-128"/>
      <point x="167" y="-86"/>
      <point x="106" y="-74" type="curve"/>
      <point x="125" y="-124" type="line"/>
      <point x="153" y="-92"/>
      <point x="206" y="-68"/>
      <point x="253" y="-50" type="curve"/>
      <point x="248" y="78" type="line"/>
      <point x="176" y="49"/>
      <point x="104" y="18"/>
      <point x="30" y="-34" type="curve"/>
      <point x="95" y="-168" type="line"/>
      <point x="151" y="-172"/>
      <point x="209" y="-199"/>
      <point x="245" y="-253" type="curve"/>
    </contour>
  </outline>
</glyph>
<glyph name="iMatra-beng.wide4" format="2">
  <advance width="203"/>
  <anchor x="1092" y="682" name="top"/>
  <anchor x="1166" y="593" name="topright"/>
  <outline>
    <contour>
      <point x="146" y="-43" type="line"/>
      <point x="157" y="-40" type="line"/>
      <point x="157" y="536" type="line"/>
      <point x="238" y="536" type="line"/>
      <point x="192" y="622" type="line"/>
      <point x="153" y="622" type="line"/>
      <point x="146" y="636"/>
      <point x="127" y="665"/>
      <point x="118" y="690" type="curve"/>
      <point x="185" y="763"/>
      <point x="311" y="807"/>
      <point x="474" y="807" type="curve" smooth="yes"/>
      <point x="641" y="807"/>
      <point x="791" y="769"/>
      <point x="966" y="674" type="curve"/>
      <point x="1005" y="734" type="line"/>
      <point x="852" y="840"/>
      <point x="649" y="925"/>
      <point x="428" y="925" type="curve" smooth="yes"/>
      <point x="198" y="925"/>
      <point x="42" y="826"/>
      <point x="-27" y="712" type="curve"/>
      <point x="0" y="677"/>
      <point x="25" y="651"/>
      <point x="49" y="622" type="curve"/>
      <point x="-35" y="622" type="line"/>
      <point x="11" y="536" type="line"/>
      <point x="46" y="536" type="line"/>
      <point x="46" y="-1" type="line"/>
    </contour>
  </outline>
</glyph>
<glyph name="sh-beng" format="2">
  <advance width="357"/>
  <outline>
    <contour>
      <point x="102" y="223" type="curve" smooth="yes"/>
      <point x="154" y="223"/>
      <point x="190" y="260"/>
      <point x="205" y="314" type="curve"/>
      <point x="221" y="254"/>
      <point x="257" y="225"/>
      <point x="301" y="225" type="curve" smooth="yes"/>
      <point x="350" y="225"/>
      <point x="386" y="262"/>
      <point x="386" y="327" type="curve" smooth="yes"/>
      <point x="386" y="399"/>
      <point x="337" y="447"/>
      <point x="283" y="477" type="curve"/>
      <point x="289" y="442" type="line"/>
      <point x="298" y="471"/>
      <point x="309" y="506"/>
      <point x="337" y="506" type="curve" smooth="yes"/>
      <point x="366" y="506"/>
      <point x="409" y="464"/>
      <point x="442" y="339" type="curve"/>
      <point x="485" y="358" type="line"/>
      <point x="455" y="505"/>
      <point x="399" y="632"/>
      <point x="298" y="632" type="curve" smooth="yes"/>
      <point x="246" y="632"/>
      <point x="208" y="587"/>
      <point x="184" y="546" type="curve"/>
      <point x="150" y="596"/>
      <point x="113" y="622"/>
      <point x="67" y="622" type="curve" smooth="yes"/>
      <point x="-35" y="622" type="line"/>
      <point x="11" y="536" type="line"/>
      <point x="65" y="536" type="line" smooth="yes"/>
      <point x="95" y="536"/>
      <point x="132" y="517"/>
      <point x="147" y="476" type="curve"/>
      <point x="169" y="511" type="line"/>
      <point x="37" y="455"/>
      <point x="10" y="385"/>
      <point x="10" y="325" type="curve" smooth="yes"/>
      <point x="10" y="250"/>
      <point x="61" y="223"/>
    </contour>
  </outline>
</glyph>
<glyph name="ss-beng" format="2">
  <advance width="395"/>
  <outline>
    <contour>
      <point x="200" y="236" type="curve" smooth="yes"/>
      <point x="294" y="236"/>
      <point x="375" y="304"/>
      <point x="375" y="430" type="curve" smooth="yes"/>
      <point x="375" y="540"/>
      <point x="303" y="603"/>
      <point x="211" y="603" type="curve" smooth="yes"/>
      <point x="104" y="603"/>
      <point x="8" y="545"/>
      <point x="8" y="429" type="curve" smooth="yes"/>
      <point x="8" y="316"/>
      <point x="103" y="236"/>
    </contour>
    <contour>
      <point x="160" y="336" type="curve" smooth="yes"/>
      <point x="138" y="336"/>
      <point x="120" y="353"/>
      <point x="120" y="383" type="curve" smooth="yes"/>
      <point x="120" y="455"/>
      <point x="184" y="520"/>
      <point x="231" y="520" type="curve" smooth="yes"/>
      <point x="253" y="520"/>
      <point x="268" y="506"/>
      <point x="268" y="475" type="curve" smooth="yes"/>
      <point x="268" y="410"/>
      <point x="204" y="336"/>
    </contour>
    <contour>
      <point x="245" y="336" type="line"/>
      <point x="284" y="384" type="line"/>
      <point x="137" y="533" type="line"/>
      <point x="93" y="486" type="line"/>
    </contour>
    <contour>
      <point x="8" y="536" type="line"/>
      <point x="430" y="536" type="line"/>
      <point x="385" y="622" type="line"/>
      <point x="-35" y="622" type="line"/>
    </contour>
  </outline>
</glyph>
<glyph name="tta_iiMatra-beng" format="2">
  <advance width="666"/>
  <anchor x="316" y="-3" name="bottom"/>
  <anchor x="387" y="0" name="bottom.rakaar"/>
  <anchor x="319" y="-3" name="bottom.rvocalic"/>
  <anchor x="281" y="20" name="bottom.virama"/>
  <anchor x="606" y="689" name="top"/>
  <anchor x="459" y="616" name="topright"/>
  <anchor x="333" y="0" name="vedic"/>
  <anchor x="211" y="-121" name="nukta"/>
  <outline>
    <contour>
      <point x="609" y="-43" type="line"/>
      <point x="620" y="-40" type="line"/>
      <point x="620" y="536" type="line"/>
      <point x="701" y="536" type="line"/>
      <point x="655" y="622" type="line"/>
      <point x="615" y="622" type="line"/>
      <point x="598" y="808"/>
      <point x="515" y="954"/>
      <point x="302" y="954" type="curve" smooth="yes"/>
      <point x="136" y="954"/>
      <point x="89" y="876"/>
      <point x="89" y="801" type="curve" smooth="yes"/>
      <point x="89" y="787"/>
      <point x="90" y="774"/>
      <point x="93" y="760" type="curve"/>
      <point x="118" y="777" type="line"/>
      <point x="51" y="777"/>
      <point x="25" y="809"/>
      <point x="25" y="863" type="curve" smooth="yes"/>
      <point x="25" y="875"/>
      <point x="26" y="890"/>
      <point x="28" y="904" type="curve"/>
      <point x="-26" y="911" type="line"/>
      <point x="-32" y="885"/>
      <point x="-35" y="854"/>
      <point x="-35" y="826" type="curve" smooth="yes"/>
      <point x="-35" y="724"/>
      <point x="18" y="657"/>
      <point x="116" y="657" type="curve" smooth="yes"/>
      <point x="186" y="657"/>
      <point x="230" y="674"/>
      <point x="284" y="674" type="curve" smooth="yes"/>
      <point x="323" y="674"/>
      <point x="364" y="668"/>
      <point x="373" y="608" type="curve"/>
      <point x="436" y="608" type="line"/>
      <point x="432" y="707"/>
      <point x="386" y="796"/>
      <point x="292" y="796" type="curve" smooth="yes"/>
      <point x="245" y="796"/>
      <point x="217" y="786"/>
      <point x="183" y="786" type="curve" smooth="yes"/>
      <point x="169" y="786"/>
      <point x="162" y="791"/>
      <point x="162" y="800" type="curve" smooth="yes"/>
      <point x="162" y="824"/>
      <point x="218" y="842"/>
      <point x="307" y="842" type="curve" smooth="yes"/>
      <point x="429" y="842"/>
      <point x="512" y="801"/>
      <point x="512" y="622" type="curve"/>
      <point x="428" y="622" type="line"/>
      <point x="474" y="536" type="line"/>
      <point x="509" y="536" type="line"/>
      <point x="509" y="-1" type="line"/>
    </contour>
    <component base="ddha-beng"/>
  </outline>
</glyph>
<glyph name="uni1CF5.stack" format="2">
  <anchor x="-299" y="0" name="_vedic"/>
  <outline>
    <contour>
      <point x="-145" y="965" type="line"/>
      <point x="-206" y="1008" type="line"/>
      <point x="-286" y="897" type="line"/>
      <point x="-367" y="1012" type="line"/>
      <point x="-461" y="947" type="line"/>
      <point x="-355" y="804" type="line"/>
      <point x="-452" y="676" type="line"/>
      <point x="-392" y="633" type="line"/>
      <point x="-312" y="745" type="line"/>
      <point x="-230" y="629" type="line"/>
      <point x="-136" y="694" type="line"/>
      <point x="-242" y="837" type="line"/>
    </contour>
  </outline>
</glyph>
<glyph name="uuMatra-beng.alt" format="2">
  <anchor x="0" y="0" name="_bottom"/>
  <outline>
    <contour>
      <point x="149" y="-317" type="curve"/>
      <point x="185" y="-275" type="line"/>
      <point x="139" y="-217"/>
      <point x="59" y="-170"/>
      <point x="11" y="-148" type="curve"/>
      <point x="-35" y="-190"/>
      <point x="-83" y="-207"/>
      <point x="-122" y="-207" type="curve" smooth="yes"/>
      <point x="-158" y="-207"/>
      <point x="-174" y="-190"/>
      <point x="-174" y="-165" type="curve" smooth="yes"/>
      <point x="-174" y="-141"/>
      <point x="-159" y="-124"/>
      <point x="-122" y="-124" type="curve" smooth="yes"/>
      <point x="-94" y="-124"/>
      <point x="-71" y="-131"/>
      <point x="-44" y="-146" type="curve"/>
      <point x="13" y="-120" type="line"/>
      <point x="-26" y="-58" type="line"/>
      <point x="-53" y="-38"/>
      <point x="-101" y="-30"/>
      <point x="-139" y="-30" type="curve" smooth="yes"/>
      <point x="-214" y="-30"/>
      <point x="-264" y="-78"/>
      <point x="-264" y="-155" type="curve" smooth="yes"/>
      <point x="-264" y="-234"/>
      <point x="-220" y="-299"/>
      <point x="-116" y="-301" type="curve" smooth="yes"/>
      <point x="-48" y="-302"/>
      <point x="9" y="-280"/>
      <point x="57" y="-222" type="curve"/>
      <point x="-5" y="-222" type="line"/>
      <point x="46" y="-233"/>
      <point x="110" y="-283"/>
    </contour>
  </outline>
</glyph>
